<svg width="500" height="500" viewBox="0 0 500 500" fill="none" xmlns="http://www.w3.org/2000/svg">
<path fill-rule="evenodd" clip-rule="evenodd" d="M157.693 82.1312H141.968C133.441 82.1312 126.534 75.1803 126.534 66.5984V35.5328C126.534 26.9509 133.441 20 141.968 20H358.033C366.559 20 373.466 26.9509 373.466 35.5328V66.5984C373.466 75.1803 366.559 82.1312 358.033 82.1312H342.319V149.645C406.915 184.406 451.646 253.236 449.954 330.157C448.857 379.879 429.617 425.118 398.617 459.542C386.992 472.444 370.232 479.603 352.867 479.603H147.058C129.962 479.603 113.356 472.743 101.866 460.072C69.6443 424.56 50 377.416 50 325.664C50 248.579 93.8559 182.164 157.693 148.75V82.1312ZM219.231 82.1312V186.022C217.269 187.05 214.718 188.251 211.708 189.668C184.919 202.28 121.738 232.023 112.644 309.712C175.962 278.039 235.376 279.857 287.453 305.912C327.608 326.006 360.588 325.815 383.21 325.684C384.959 325.674 386.647 325.664 388.271 325.664C388.028 242.937 324.749 209.622 287.911 190.226C285.402 188.905 283.015 187.649 280.78 186.445V82.1312H219.231Z" fill="url(#paint0_linear_0_47)"/>
<defs>
<linearGradient id="paint0_linear_0_47" x1="-73.7058" y1="258.665" x2="305.043" y2="581.489" gradientUnits="userSpaceOnUse">
<stop stop-color="#00EAF8"/>
<stop offset="1" stop-color="#6D42EF"/>
</linearGradient>
</defs>
</svg>
